<svg class="animated" id="freepik_stories-new-year-toast" xmlns="http://www.w3.org/2000/svg" viewBox="0 0 500 500" version="1.1" xmlns:xlink="http://www.w3.org/1999/xlink" xmlns:svgjs="http://svgjs.com/svgjs"><style>svg#freepik_stories-new-year-toast:not(.animated) .animable {opacity: 0;}svg#freepik_stories-new-year-toast.animated #freepik--background-simple--inject-20 {animation: 1s 1 forwards cubic-bezier(.36,-0.01,.5,1.38) zoomOut;animation-delay: 0s;}svg#freepik_stories-new-year-toast.animated #freepik--Banner--inject-20 {animation: 1s 1 forwards cubic-bezier(.36,-0.01,.5,1.38) lightSpeedRight;animation-delay: 1s;opacity: 0}svg#freepik_stories-new-year-toast.animated #freepik--hand-3--inject-20 {animation: 1s 1 forwards cubic-bezier(.36,-0.01,.5,1.38) slideDown;animation-delay: 0.6s;opacity: 0}svg#freepik_stories-new-year-toast.animated #freepik--hand-1--inject-20 {animation: 1s 1 forwards cubic-bezier(.36,-0.01,.5,1.38) lightSpeedLeft;animation-delay: 0.4s;opacity: 0}svg#freepik_stories-new-year-toast.animated #freepik--hand-2--inject-20 {animation: 1s 1 forwards cubic-bezier(.36,-0.01,.5,1.38) slideLeft;animation-delay: 0.2s;opacity: 0}svg#freepik_stories-new-year-toast.animated #freepik--Confetti--inject-20 {animation: 1s 1 forwards cubic-bezier(.36,-0.01,.5,1.38) slideUp;animation-delay: 0.8s;opacity: 0}            @keyframes zoomOut {                0% {                    opacity: 0;                    transform: scale(1.5);                }                100% {                    opacity: 1;                    transform: scale(1);                }            }                    @keyframes lightSpeedRight {              from {                transform: translate3d(50%, 0, 0) skewX(-20deg);                opacity: 0;              }              60% {                transform: skewX(10deg);                opacity: 1;              }              80% {                transform: skewX(-2deg);              }              to {                opacity: 1;                transform: translate3d(0, 0, 0);              }            }                    @keyframes slideDown {                0% {                    opacity: 0;                    transform: translateY(-30px);                }                100% {                    opacity: 1;                    transform: translateY(0);                }            }                    @keyframes lightSpeedLeft {              from {                transform: translate3d(-50%, 0, 0) skewX(20deg);                opacity: 0;              }              60% {                transform: skewX(-10deg);                opacity: 1;              }              80% {                transform: skewX(2deg);              }              to {                opacity: 1;                transform: translate3d(0, 0, 0);              }            }                    @keyframes slideLeft {                0% {                    opacity: 0;                    transform: translateX(-30px);                }                100% {                    opacity: 1;                    transform: translateX(0);                }            }                    @keyframes slideUp {                0% {                    opacity: 0;                    transform: translateY(30px);                }                100% {                    opacity: 1;                    transform: inherit;                }            }        </style><g id="freepik--background-simple--inject-20" class="animable" style="transform-origin: 248.117px 261.048px;"><path d="M471.76,207.68C455.32,154,413.06,110.94,363,88.27c-47.72-21.63-108-32.32-153.25,1-29.77,21.92-46.63,57-73.89,81.63-13.54,12.22-28.38,16.19-44.49,23.5-39.29,17.81-72.16,52.17-74.87,97.49C12,367.64,72.09,420.05,139.11,437.24,227.68,460,293.89,460,354.72,435.42c31.6-12.74,63.75-28.86,86.53-55.24,34.45-39.91,44-96.59,36.14-147.84A175.49,175.49,0,0,0,471.76,207.68Z" style="fill: #90CAF9; transform-origin: 248.117px 261.048px;" id="elh3i4mri7ukk" class="animable"></path><g id="elwnwds314js"><path d="M471.76,207.68C455.32,154,413.06,110.94,363,88.27c-47.72-21.63-108-32.32-153.25,1-29.77,21.92-46.63,57-73.89,81.63-13.54,12.22-28.38,16.19-44.49,23.5-39.29,17.81-72.16,52.17-74.87,97.49C12,367.64,72.09,420.05,139.11,437.24,227.68,460,293.89,460,354.72,435.42c31.6-12.74,63.75-28.86,86.53-55.24,34.45-39.91,44-96.59,36.14-147.84A175.49,175.49,0,0,0,471.76,207.68Z" style="fill: rgb(255, 255, 255); opacity: 0.8; transform-origin: 248.117px 261.048px;" class="animable" id="elvcee57hzl5f"></path></g></g><g id="freepik--Banner--inject-20" class="animable animator-active" style="transform-origin: 248.96px 107.175px;"><path d="M72.05,141.07s109.68-5.24,177.4-6.95c67.72,1.71,177.4,6.95,177.4,6.95s-8.56-10.34-14.26-31,5.86-36.71,5.86-36.71c-55.88,6.25-115.71,5.17-165.67,4.87v0c-1.1,0-2.22,0-3.33,0s-2.23,0-3.33,0v0c-50,.3-118-3-173.9-9.27,0,0,4.75,26,4.55,32.8A225.91,225.91,0,0,1,72.05,141.07Z" style="fill: rgb(38, 50, 56); stroke: rgb(38, 50, 56); stroke-miterlimit: 10; transform-origin: 249.45px 105.015px;" id="ell40njo2d7w" class="animable"></path><path d="M141.6,109.61v13.83h-3.42V92.71h3.42v13.83h7.55V92.71h3.42v30.73h-3.42V109.61Z" style="fill: #90CAF9; transform-origin: 145.375px 108.075px;" id="el30e3itgifv5" class="animable"></path><path d="M159.55,117.25l-1.19,6.19H155.2l5.89-30.73h5l5.88,30.73H168.5l-1.18-6.19Zm.44-2.94h6.85l-3.47-17.74Z" style="fill: #90CAF9; transform-origin: 163.585px 108.075px;" id="el8bmpitp8rmf" class="animable"></path><path d="M181.32,92.71c4.83,0,6.89,2.85,6.89,7.51v3.68c0,4.88-2.28,7.42-7.16,7.42h-3v12.12H174.6V92.71Zm-.27,15.54c2.55,0,3.78-1.19,3.78-4.13V100c0-2.81-1-4.21-3.51-4.21H178v12.42Z" style="fill: #90CAF9; transform-origin: 181.405px 108.075px;" id="elgxe8mywv4" class="animable"></path><path d="M197.73,92.71c4.83,0,6.89,2.85,6.89,7.51v3.68c0,4.88-2.28,7.42-7.15,7.42h-3v12.12H191V92.71Zm-.26,15.54c2.54,0,3.77-1.19,3.77-4.13V100c0-2.81-1-4.21-3.51-4.21h-3.29v12.42Z" style="fill: #90CAF9; transform-origin: 197.81px 108.075px;" id="ellql1hv2q08s" class="animable"></path><path d="M212.78,112.42l-6.49-19.71h3.55l4.79,15.1,4.83-15.1h3.24l-6.54,19.71v11h-3.38Z" style="fill: #90CAF9; transform-origin: 214.495px 108.065px;" id="elsn0sb0vmc7" class="animable"></path><path d="M235,123.44h-3.07V92.71h4.34l7.11,22.21V92.71h3v30.73h-3.55L235,98.59Z" style="fill: #90CAF9; transform-origin: 239.155px 108.075px;" id="elhjn0ir80xr" class="animable"></path><path d="M260.84,106.32v3.07h-7.51v10.93h9.22v3.12H249.91V92.71h12.64v3.12h-9.22v10.49Z" style="fill: #90CAF9; transform-origin: 256.23px 108.075px;" id="el5pmn3jsr3lb" class="animable"></path><path d="M273.87,123.44h-4.69L265,92.71h3.34l3.6,26.16,3.42-26.11h3.38l3.38,26.15,3.47-26.2h3l-4.17,30.73h-4.52l-2.94-20.85Z" style="fill: #90CAF9; transform-origin: 276.795px 108.075px;" id="elt5e38v9pugf" class="animable"></path><path d="M303.54,112.42,297,92.71h3.56l4.78,15.1,4.83-15.1h3.25l-6.54,19.71v11h-3.38Z" style="fill: #90CAF9; transform-origin: 305.21px 108.065px;" id="el3d2yz6taw8d" class="animable"></path><path d="M326.84,106.32v3.07h-7.5v10.93h9.22v3.12H315.91V92.71h12.65v3.12h-9.22v10.49Z" style="fill: #90CAF9; transform-origin: 322.235px 108.075px;" id="elr8huu6mixhq" class="animable"></path><path d="M335.18,117.25,334,123.44h-3.16l5.88-30.73h5l5.88,30.73h-3.43L343,117.25Zm.44-2.94h6.85L339,96.57Z" style="fill: #90CAF9; transform-origin: 339.22px 108.075px;" id="elrwnucthojaf" class="animable"></path><path d="M357.08,92.71c4.83,0,6.85,2.46,6.85,7v2.51c0,3.38-1.19,5.48-3.82,6.32,2.81.83,3.86,3.11,3.86,6.41v4.78a7.73,7.73,0,0,0,.62,3.69h-3.47a8,8,0,0,1-.57-3.73v-4.83c0-3.47-1.63-4.57-4.48-4.57h-2.41v13.13h-3.43V92.71Zm-.88,14.49c2.72,0,4.35-.88,4.35-4.22V100c0-2.76-1-4.21-3.56-4.21h-3.33V107.2Z" style="fill: #90CAF9; transform-origin: 357.41px 108.065px;" id="elyp89806o50f" class="animable"></path><path d="M379.27,92.45c-.83,3.54-4.5,5.71-4.5,5.71s-2.32-3.57-1.49-7.11,4.5-5.72,4.5-5.72S380.1,88.91,379.27,92.45Z" style="fill: #90CAF9; transform-origin: 376.275px 91.745px;" id="el2t04v8f0gfc" class="animable"></path><path d="M383,102.82c-3.64-.13-6.48-3.3-6.48-3.3s3.06-3,6.69-2.84,6.48,3.3,6.48,3.3S386.65,103,383,102.82Z" style="fill: #90CAF9; transform-origin: 383.105px 99.7508px;" id="el9g4yx37kiqq" class="animable"></path><path d="M124.08,92.45c.83,3.54,4.49,5.71,4.49,5.71s2.32-3.57,1.49-7.11-4.49-5.72-4.49-5.72S123.25,88.91,124.08,92.45Z" style="fill: #90CAF9; transform-origin: 127.07px 91.745px;" id="el974z8xi2lt9" class="animable"></path><path d="M120.33,102.82c3.63-.13,6.47-3.3,6.47-3.3s-3-3-6.69-2.84-6.47,3.3-6.47,3.3S116.69,103,120.33,102.82Z" style="fill: #90CAF9; transform-origin: 120.22px 99.7508px;" id="elbbokl3byyu4" class="animable"></path><line x1="76.36" y1="72.41" x2="80.91" y2="80.68" style="fill: none; stroke: rgb(255, 255, 255); stroke-linecap: round; stroke-linejoin: round; transform-origin: 78.635px 76.545px;" id="el730n70fwi8m" class="animable"></line><line x1="88.61" y1="77.39" x2="90" y2="78.2" style="fill: none; stroke: rgb(255, 255, 255); stroke-linecap: round; stroke-linejoin: round; transform-origin: 89.305px 77.795px;" id="el0uos4xd696hj" class="animable"></line><line x1="80.08" y1="72.41" x2="86.89" y2="76.39" style="fill: none; stroke: rgb(255, 255, 255); stroke-linecap: round; stroke-linejoin: round; transform-origin: 83.485px 74.4px;" id="eloz3ucranueh" class="animable"></line><line x1="75.53" y1="76.96" x2="78.84" y2="85.22" style="fill: none; stroke: rgb(255, 255, 255); stroke-linecap: round; stroke-linejoin: round; transform-origin: 77.185px 81.09px;" id="eleyn3irdtdyc" class="animable"></line><line x1="75.53" y1="136.04" x2="79.67" y2="127.36" style="fill: none; stroke: rgb(255, 255, 255); stroke-linecap: round; stroke-linejoin: round; transform-origin: 77.6px 131.7px;" id="eler0w5jj9w58" class="animable"></line><line x1="80.08" y1="134.8" x2="86.28" y2="128.6" style="fill: none; stroke: rgb(255, 255, 255); stroke-linecap: round; stroke-linejoin: round; transform-origin: 83.18px 131.7px;" id="el28wkgyoh3t7" class="animable"></line><line x1="86.91" y1="137.01" x2="87.93" y2="136.87" style="fill: none; stroke: rgb(255, 255, 255); stroke-linecap: round; stroke-linejoin: round; transform-origin: 87.42px 136.94px;" id="el7783s64nsub" class="animable"></line><line x1="79.25" y1="138.1" x2="85.11" y2="137.27" style="fill: none; stroke: rgb(255, 255, 255); stroke-linecap: round; stroke-linejoin: round; transform-origin: 82.18px 137.685px;" id="el079a21wamx4g" class="animable"></line><line x1="409.65" y1="78.2" x2="403.9" y2="83.84" style="fill: none; stroke: rgb(255, 255, 255); stroke-linecap: round; stroke-linejoin: round; transform-origin: 406.775px 81.02px;" id="ela5bswlviunb" class="animable"></line><line x1="400.89" y1="78.96" x2="399.34" y2="79.37" style="fill: none; stroke: rgb(255, 255, 255); stroke-linecap: round; stroke-linejoin: round; transform-origin: 400.115px 79.165px;" id="ellatp9hle1" class="animable"></line><line x1="407.41" y1="77.21" x2="402.44" y2="78.54" style="fill: none; stroke: rgb(255, 255, 255); stroke-linecap: round; stroke-linejoin: round; transform-origin: 404.925px 77.875px;" id="elz7esn0vqr8" class="animable"></line><line x1="408.48" y1="82.18" x2="403.48" y2="88.15" style="fill: none; stroke: rgb(255, 255, 255); stroke-linecap: round; stroke-linejoin: round; transform-origin: 405.98px 85.165px;" id="elfzo2ak0tkqv" class="animable"></line><line x1="417.12" y1="136.19" x2="412.77" y2="129.1" style="fill: none; stroke: rgb(255, 255, 255); stroke-linecap: round; stroke-linejoin: round; transform-origin: 414.945px 132.645px;" id="el47jx8wb77cw" class="animable"></line><line x1="409.44" y1="131.72" x2="408.78" y2="131.14" style="fill: none; stroke: rgb(255, 255, 255); stroke-linecap: round; stroke-linejoin: round; transform-origin: 409.11px 131.43px;" id="el418qlddfohq" class="animable"></line><line x1="413.97" y1="135.73" x2="410.99" y2="133.1" style="fill: none; stroke: rgb(255, 255, 255); stroke-linecap: round; stroke-linejoin: round; transform-origin: 412.48px 134.415px;" id="el9tuc2pwk0vc" class="animable"></line><line x1="415.14" y1="138.54" x2="409.33" y2="138.68" style="fill: none; stroke: rgb(255, 255, 255); stroke-linecap: round; stroke-linejoin: round; transform-origin: 412.235px 138.61px;" id="el0216fvjwu8wy" class="animable"></line><line x1="39.14" y1="34.96" x2="37.6" y2="33.38" style="fill: none; stroke: gray; stroke-linecap: round; stroke-linejoin: round; transform-origin: 38.37px 34.17px;" id="el7dvgs87folo" class="animable"></line><line x1="72.22" y1="68.95" x2="42.76" y2="38.68" style="fill: none; stroke: gray; stroke-linecap: round; stroke-linejoin: round; transform-origin: 57.49px 53.815px;" id="elzjudivt167h" class="animable"></line><line x1="32.3" y1="180.71" x2="27.57" y2="185.43" style="fill: none; stroke: gray; stroke-linecap: round; stroke-linejoin: round; transform-origin: 29.935px 183.07px;" id="eleg825uggnie" class="animable"></line><line x1="72.05" y1="141.07" x2="38.17" y2="174.86" style="fill: none; stroke: gray; stroke-linecap: round; stroke-linejoin: round; transform-origin: 55.11px 157.965px;" id="elx394dl2p9xi" class="animable"></line><line x1="464.21" y1="31.95" x2="467.56" y2="28.92" style="fill: none; stroke: gray; stroke-linecap: round; stroke-linejoin: round; transform-origin: 465.885px 30.435px;" id="elzfmxq6xqit" class="animable"></line><line x1="418.45" y1="73.35" x2="460.01" y2="35.76" style="fill: none; stroke: gray; stroke-linecap: round; stroke-linejoin: round; transform-origin: 439.23px 54.555px;" id="elzawealwh9e" class="animable"></line><line x1="467.68" y1="174.87" x2="470.35" y2="177.07" style="fill: none; stroke: gray; stroke-linecap: round; stroke-linejoin: round; transform-origin: 469.015px 175.97px;" id="elt4t78maclz" class="animable"></line><line x1="426.85" y1="141.07" x2="462.95" y2="170.95" style="fill: none; stroke: gray; stroke-linecap: round; stroke-linejoin: round; transform-origin: 444.9px 156.01px;" id="elhvgvmvko38l" class="animable"></line></g><g id="freepik--hand-3--inject-20" class="animable" style="transform-origin: 375.33px 261.75px;"><path d="M393.59,255s-12.06-11.22-15.26-14-16.5-18.93-21.87-27.77-8.21-8.07-19.88-12.68-20.45-6.85-22.34-5.3S297.68,212.32,292.38,217s-9.22,5.68-4.79,6.46,10.71-1.37,10.71-1.37-1.31,4.37-6.34,9.76-1.36,6.8,1.15,6,8.56-6.09,8.56-6.09-5.09,9.55-2.69,9.78,10.54-8.66,10.54-8.66-5,12.66-1.62,13,5.82-6.36,7.15-9.34,2.25-5.32,2.25-5.32,12,18.83,19.87,23.41S360,262.39,360,262.39l15.91,14.37Z" style="fill: rgb(255, 255, 255); stroke: rgb(38, 50, 56); stroke-miterlimit: 10; transform-origin: 339.63px 235.761px;" id="elhfe6fsizwvd" class="animable"></path><path d="M298.3,222.08S301.68,221,316,209.26l9.44,2.66" style="fill: none; stroke: rgb(38, 50, 56); stroke-miterlimit: 10; transform-origin: 311.87px 215.67px;" id="els9tvjv49ggr" class="animable"></path><path d="M301.67,231.75a29.39,29.39,0,0,0,7.18-9.68" style="fill: none; stroke: rgb(38, 50, 56); stroke-miterlimit: 10; transform-origin: 305.26px 226.91px;" id="elqignz5zrw4q" class="animable"></path><path d="M309.52,232.87a39.19,39.19,0,0,0,6.25-7.86" style="fill: none; stroke: rgb(38, 50, 56); stroke-miterlimit: 10; transform-origin: 312.645px 228.94px;" id="eldhraoh0a10f" class="animable"></path><path d="M297.65,210.91h0A17.51,17.51,0,0,1,274,203.51l-15.34-40.65,21.73-11.36,24.65,35.78A17.51,17.51,0,0,1,297.65,210.91Z" style="fill: none; stroke: rgb(38, 50, 56); stroke-miterlimit: 10; transform-origin: 282.848px 182.206px;" id="el2f3ppks5tpb" class="animable"></path><path d="M298.07,179.67a16.2,16.2,0,0,1-7.78,1.3c-8.52-.64-11.36-4.43-18-5.37a22,22,0,0,0-7.24.06l9.84,26.09a15.93,15.93,0,0,0,21.49,6.73h0a15.93,15.93,0,0,0,6.73-21.5Z" style="fill: #90CAF9; transform-origin: 284.988px 192.81px;" id="elpqnfi93r5r" class="animable"></path><path d="M288.78,202.4a1.69,1.69,0,1,1-1.69-1.69A1.69,1.69,0,0,1,288.78,202.4Z" style="fill: rgb(255, 255, 255); transform-origin: 287.09px 202.4px;" id="eliablpsuydf" class="animable"></path><path d="M283.29,192.79a2.22,2.22,0,1,1-2.22-2.21A2.21,2.21,0,0,1,283.29,192.79Z" style="fill: rgb(255, 255, 255); transform-origin: 281.07px 192.8px;" id="ele464gxgv76n" class="animable"></path><path d="M300,199.23a3,3,0,1,1-3-2.95A3,3,0,0,1,300,199.23Z" style="fill: rgb(255, 255, 255); transform-origin: 297px 199.28px;" id="el3o4c4demtrg" class="animable"></path><circle cx="294.48" cy="189.1" r="1.06" style="fill: rgb(255, 255, 255); transform-origin: 294.48px 189.1px;" id="el9nuqpp96s8p" class="animable"></circle><path d="M289.41,187.83a.84.84,0,1,1-1.68,0,.84.84,0,1,1,1.68,0Z" style="fill: rgb(255, 255, 255); transform-origin: 288.57px 187.83px;" id="elp4abltj44y" class="animable"></path><path d="M279.07,182.24a1.16,1.16,0,1,1-1.16-1.17A1.16,1.16,0,0,1,279.07,182.24Z" style="fill: rgb(255, 255, 255); transform-origin: 277.91px 182.23px;" id="elkp2udr4vzkl" class="animable"></path><g id="elry7kl4sgxr"><path d="M298.37,207.49h0c-7.1,3.71-16.05.63-20-6.88l-13.54-35.19-1.94,1L276.58,202c3.93,7.51,12.88,10.59,20,6.87h0a13.37,13.37,0,0,0,2.69-1.85C299,207.15,298.68,207.33,298.37,207.49Z" style="fill: rgb(255, 255, 255); opacity: 0.8; transform-origin: 281.08px 187.934px;" class="animable" id="eldinupblaqcu"></path></g><path d="M339.86,249.65c-2.41.86-10.65,3.73-13.23,3.89a22.25,22.25,0,0,1-4.79-.3L299.43,210c-.43.28-.87.55-1.33.79h0a11.92,11.92,0,0,1-1.42.64L319,254.58a22.48,22.48,0,0,1-2.56,4.27c-1.61,2-8.66,7.16-10.75,8.65a.83.83,0,0,0,.87,1.41l16.83-8.8.27-.14,16.82-8.8a.84.84,0,0,0,.35-1.12A.82.82,0,0,0,339.86,249.65Z" style="fill: none; stroke: rgb(38, 50, 56); stroke-miterlimit: 10; transform-origin: 318.801px 239.504px;" id="elxvf1dx0yzt" class="animable"></path><path d="M345.7,217s-5.52-.2-9.29-.57a148.38,148.38,0,0,1-26.42-6c-9.71-3.38-14.69-5.6-15.85-4.33s-1.88,5,5.57,10.25,15.73,9.15,19.5,9.52a13.82,13.82,0,0,1,6.66,2.73s11,14.59,17.5,19.37,18.08,6.28,18.08,6.28" style="fill: rgb(255, 255, 255); stroke: rgb(38, 50, 56); stroke-miterlimit: 10; transform-origin: 327.431px 229.994px;" id="el2q07abl6swd" class="animable"></path><polygon points="390.67 247 365.74 277.68 380.92 289.43 405.01 257.73 390.67 247" style="fill: rgb(255, 255, 255); stroke: rgb(38, 50, 56); stroke-miterlimit: 10; transform-origin: 385.375px 268.215px;" id="elyrmtd4sixts" class="animable"></polygon><path d="M368.82,293.84,471.45,372c11.74-21.36,18.33-45.46,20.55-70l-91.62-49.39Z" style="fill: rgb(38, 50, 56); stroke: rgb(38, 50, 56); stroke-miterlimit: 10; transform-origin: 430.41px 312.305px;" id="el0222samoa95z" class="animable"></path><path d="M382.65,291.8A1.86,1.86,0,1,1,380.8,290,1.85,1.85,0,0,1,382.65,291.8Z" style="fill: rgb(255, 255, 255); transform-origin: 380.791px 291.86px;" id="elrpexzm521xn" class="animable"></path><path d="M388.82,298a1.86,1.86,0,1,1-1.85-1.85A1.85,1.85,0,0,1,388.82,298Z" style="fill: rgb(255, 255, 255); transform-origin: 386.96px 298.01px;" id="elz52wngnxne" class="animable"></path></g><g id="freepik--hand-1--inject-20" class="animable" style="transform-origin: 135.91px 235.715px;"><path d="M13,294c6.23-3.09,48.84-13.65,65.8-18.13s37.56-17.29,42.59-20.82,35.68-29.31,40.13-33.21,16.83-6.36,25.92-7,18.94.39,22.88,1.42,12.52,5.33,10.67,8.26-8.25-1.48-14.54-.88a17.92,17.92,0,0,0-9.71,3.67s2.42,15.81-.67,18.6-9.14,7.15-18.26,11.19-16.78,5.74-23.19,7.57-9.27,2.47-9.27,2.47-34.95,19.12-55.58,38.16S35,342,11,354" style="fill: rgb(255, 255, 255); stroke: rgb(38, 50, 56); stroke-miterlimit: 10; transform-origin: 116.124px 284.321px;" id="eldk35q2bonx6" class="animable"></path><path d="M196.9,215.47h0a17.5,17.5,0,0,1-14.63-20L194,153.67l24.24,3.75-1.4,43.42A17.5,17.5,0,0,1,196.9,215.47Z" style="fill: none; stroke: rgb(38, 50, 56); stroke-miterlimit: 10; transform-origin: 200.15px 184.671px;" id="elpvx38lom7ap" class="animable"></path><path d="M200.81,176.61c-5.81,5.38-11,7.2-14,7.81l-3,10.8a16.2,16.2,0,0,0,13.41,18.58h0a16.2,16.2,0,0,0,18.39-13.66l1.13-33.59A54.23,54.23,0,0,0,200.81,176.61Z" style="fill: #90CAF9; transform-origin: 200.171px 190.262px;" id="ellrwziw4aso8" class="animable"></path><circle cx="198.52" cy="208.84" r="1.37" style="fill: rgb(255, 255, 255); transform-origin: 198.52px 208.84px;" id="el62ig7ox53ne" class="animable"></circle><path d="M196.94,199.34a1.59,1.59,0,1,1-1.59-1.59A1.59,1.59,0,0,1,196.94,199.34Z" style="fill: rgb(255, 255, 255); transform-origin: 195.35px 199.34px;" id="elgy1dgtv6tm7" class="animable"></path><path d="M213.62,196a3.28,3.28,0,1,1-3.28-3.27A3.27,3.27,0,0,1,213.62,196Z" style="fill: rgb(255, 255, 255); transform-origin: 210.34px 196.01px;" id="elmyy2rcccy7k" class="animable"></path><path d="M203.27,203.45a1.27,1.27,0,1,1-1.27-1.26A1.27,1.27,0,0,1,203.27,203.45Z" style="fill: rgb(255, 255, 255); transform-origin: 202px 203.46px;" id="elwfqod97q4z" class="animable"></path><g id="els3g9dap4hx"><path d="M199.51,213.14h0c-7.92-1.22-13.29-9-12-17.39l10-36.36-2.16-.33-10.07,36.69c-1.3,8.38,4.08,16.17,12,17.39h0a13.82,13.82,0,0,0,3.27.1C200.19,213.22,199.85,213.19,199.51,213.14Z" style="fill: rgb(255, 255, 255); opacity: 0.8; transform-origin: 192.818px 186.177px;" class="animable" id="el8f4xeoj8stt"></path></g><path d="M207.89,271.7c-2.45-.74-10.78-3.32-13-4.72a22.29,22.29,0,0,1-3.68-3.08l7.64-48.14a13.37,13.37,0,0,1-1.54-.15h0a14.6,14.6,0,0,1-1.52-.32l-7.62,48a22.52,22.52,0,0,1-4.6,1.92c-2.5.68-11.22.62-13.78.59a.81.81,0,0,0-.83.7.82.82,0,0,0,.69.94l18.77,2.9.3.05,18.76,2.9a.83.83,0,0,0,.37-1.61Z" style="fill: none; stroke: rgb(38, 50, 56); stroke-miterlimit: 10; transform-origin: 188.683px 244.293px;" id="el5f6zq6dx643" class="animable"></path><path d="M203.72,243.4a2.57,2.57,0,0,0-1.91-3.55,13.43,13.43,0,0,0-4.1-.08c-4.86.53-15.14,3.59-14.64,5.36s10.47,1.77,14.69.83C200.72,245.3,203,244.9,203.72,243.4Z" style="fill: rgb(255, 255, 255); stroke: rgb(38, 50, 56); stroke-miterlimit: 10; transform-origin: 193.492px 243.118px;" id="elwdmuuictlub" class="animable"></path><path d="M208.08,229.27a2.86,2.86,0,0,0-2.13-4,14.49,14.49,0,0,0-4.57-.09c-5.42.59-16.87,4-16.31,6s11.67,2,16.37.91C204.73,231.39,207.24,231,208.08,229.27Z" style="fill: rgb(255, 255, 255); stroke: rgb(38, 50, 56); stroke-miterlimit: 10; transform-origin: 196.692px 228.93px;" id="elqydtqjgt839" class="animable"></path><path d="M208.16,236.6a2.86,2.86,0,0,0-2.12-4,15.14,15.14,0,0,0-4.57-.09c-5.43.59-16.88,4-16.32,6s11.67,2,16.37.92C204.81,238.71,207.32,238.28,208.16,236.6Z" style="fill: rgb(255, 255, 255); stroke: rgb(38, 50, 56); stroke-miterlimit: 10; transform-origin: 196.773px 236.265px;" id="elqihl6jwu1b" class="animable"></path><path d="M160.24,230.57s3.5-4.24,7.53-6.12,10-3.95,15.71-7.58,7.79-8.77,8.11-.69S186.06,229,179.65,231.8s-5.67,6.69-11,13.8-16.33,13.64-21,10.48" style="fill: rgb(255, 255, 255); stroke: rgb(38, 50, 56); stroke-miterlimit: 10; transform-origin: 169.626px 234.391px;" id="elhj77jjprou" class="animable"></path><circle cx="240.38" cy="158.81" r="3.16" style="fill: #90CAF9; transform-origin: 240.38px 158.81px;" id="el05m6rdltwqd5" class="animable"></circle><path d="M252.85,139a2.33,2.33,0,1,1-2.33-2.32A2.33,2.33,0,0,1,252.85,139Z" style="fill: #90CAF9; transform-origin: 250.52px 139.01px;" id="elbhlisvi2veh" class="animable"></path><path d="M260.82,131.89a1.5,1.5,0,1,1-1.49-1.5A1.49,1.49,0,0,1,260.82,131.89Z" style="fill: #90CAF9; transform-origin: 259.32px 131.89px;" id="elgv1er95pvce" class="animable"></path><circle cx="247.7" cy="126.24" r="0.83" style="fill: #90CAF9; transform-origin: 247.7px 126.24px;" id="elat929hro5yo" class="animable"></circle><path d="M207.65,133.71a1,1,0,1,1-1-1A1,1,0,0,1,207.65,133.71Z" style="fill: #90CAF9; transform-origin: 206.65px 133.71px;" id="elaj1pjx87gk7" class="animable"></path><path d="M198,126.24a1.17,1.17,0,1,0-1.17,1.16A1.17,1.17,0,0,0,198,126.24Z" style="fill: #90CAF9; transform-origin: 196.83px 126.23px;" id="elym868dza1jd" class="animable"></path><circle cx="206.98" cy="119.09" r="1.66" style="fill: #90CAF9; transform-origin: 206.98px 119.09px;" id="elc222uuf93e5" class="animable"></circle><path d="M250.52,164.29a1.33,1.33,0,1,1-1.33-1.33A1.32,1.32,0,0,1,250.52,164.29Z" style="fill: #90CAF9; transform-origin: 249.19px 164.29px;" id="elu71i1ugheaa" class="animable"></path><path d="M235.9,142a1.33,1.33,0,1,1-1.33-1.33A1.33,1.33,0,0,1,235.9,142Z" style="fill: #90CAF9; transform-origin: 234.57px 142px;" id="elaimo0eptnel" class="animable"></path></g><g id="freepik--hand-2--inject-20" class="animable" style="transform-origin: 182.371px 337.13px;"><path d="M253.82,247.31h0A17.51,17.51,0,0,1,236.3,229.8l5.22-43.13H266l5.28,43.12A17.52,17.52,0,0,1,253.82,247.31Z" style="fill: none; stroke: rgb(38, 50, 56); stroke-miterlimit: 10; transform-origin: 253.79px 216.99px;" id="elgi2w5zjllrk" class="animable"></path><path d="M251.73,208.3c-4.92,6.21-9.76,8.8-12.68,9.87l-1.33,11.14a16.2,16.2,0,0,0,16.1,16.3h0a16.19,16.19,0,0,0,16.08-16.32l-4-33.37A54.44,54.44,0,0,0,251.73,208.3Z" style="fill: #90CAF9; transform-origin: 253.81px 220.765px;" id="elsgjq03njfm9" class="animable"></path><path d="M251,228.9a2,2,0,1,1-2-2A2,2,0,0,1,251,228.9Z" style="fill: rgb(255, 255, 255); transform-origin: 249px 228.9px;" id="elba5u32opc1r" class="animable"></path><path d="M253.1,237.13a1,1,0,1,1-.95-.95A.95.95,0,0,1,253.1,237.13Z" style="fill: rgb(255, 255, 255); transform-origin: 252.101px 237.179px;" id="elqkjemp5jdrp" class="animable"></path><path d="M259.85,226.47a2.32,2.32,0,1,1-2.32-2.32A2.32,2.32,0,0,1,259.85,226.47Z" style="fill: rgb(255, 255, 255); transform-origin: 257.53px 226.47px;" id="el9p18q3pb1wn" class="animable"></path><path d="M263.44,217.5a1.58,1.58,0,1,1-1.58-1.59A1.58,1.58,0,0,1,263.44,217.5Z" style="fill: rgb(255, 255, 255); transform-origin: 261.86px 217.49px;" id="el7pnr83jq5te" class="animable"></path><path d="M252.47,219.4a1.17,1.17,0,1,1-1.17-1.17A1.16,1.16,0,0,1,252.47,219.4Z" style="fill: rgb(255, 255, 255); transform-origin: 251.3px 219.4px;" id="elu0xo5xmp5zl" class="animable"></path><path d="M257.11,233.54a.95.95,0,1,1-.95-.95A.95.95,0,0,1,257.11,233.54Z" style="fill: rgb(255, 255, 255); transform-origin: 256.16px 233.54px;" id="eldluyqtx7hdq" class="animable"></path><path d="M261.54,210.21a2.53,2.53,0,1,1-2.53-2.53A2.53,2.53,0,0,1,261.54,210.21Z" style="fill: rgb(255, 255, 255); transform-origin: 259.01px 210.21px;" id="elvjnc2q3tt6l" class="animable"></path><g id="elayb5c125lv"><path d="M256.05,244.6h0c-8,0-14.52-6.86-14.53-15.34l4.29-37.46h-2.18l-4.34,37.8c0,8.48,6.51,15.35,14.53,15.35h0a13.82,13.82,0,0,0,3.24-.4C256.73,244.57,256.39,244.6,256.05,244.6Z" style="fill: rgb(255, 255, 255); opacity: 0.8; transform-origin: 248.175px 218.375px;" class="animable" id="elvq3bko9cmrd"></path></g><path d="M273.3,301.18c-2.54-.35-11.16-1.63-13.53-2.68a22.12,22.12,0,0,1-4.11-2.48l.17-48.73c-.51.05-1,.09-1.55.09h0a13,13,0,0,1-1.54-.09l-.17,48.62a22,22,0,0,1-4.26,2.6c-2.36,1.05-11,2.34-13.52,2.7a.81.81,0,0,0-.71.82.83.83,0,0,0,.83.82h38.27a.83.83,0,0,0,.12-1.65Z" style="fill: none; stroke: rgb(38, 50, 56); stroke-miterlimit: 10; transform-origin: 254.041px 275.07px;" id="elpnr7p9sbnia" class="animable"></path><path d="M239.34,223.59s-25.46,10.84-29.49,15-21.84,59-24.48,63.38S147.68,376,147.68,376l42,13.46s16-73.68,18.42-75.79,15.62-13.27,21.73-19S248,276.1,250.11,274.48s10.13-6.23,10.13-6.23-1.69,4.74.21,5.42,4.47-.55,5.49-3.4a48.73,48.73,0,0,0,1.52-6.86,5.57,5.57,0,0,0-1.6-4.93h0a8.3,8.3,0,0,0-.31-4c-.72-2.18-2.17-2.91-2.33-4.25s-.1-5.32-1.46-6.66-2-1.49-4.86-2.59c-2.7-1-16.53-5.24-16.53-5.24s9-4.72,12.31-3.32,10,7.85,14.06,7.36,7.1-1.32,5.54-2.95-6.47-4.65-13.11-10.65S239.34,223.59,239.34,223.59Z" style="fill: rgb(255, 255, 255); stroke: rgb(38, 50, 56); stroke-linecap: round; stroke-linejoin: round; transform-origin: 210.188px 306.042px;" id="eltgwpsk7xtj" class="animable"></path><line x1="252.94" y1="260.45" x2="250.32" y2="260.85" style="fill: none; stroke: rgb(38, 50, 56); stroke-linecap: round; stroke-linejoin: round; transform-origin: 251.63px 260.65px;" id="el8ucpey0jxun" class="animable"></line><line x1="265.86" y1="258.48" x2="254.7" y2="260.19" style="fill: none; stroke: rgb(38, 50, 56); stroke-linecap: round; stroke-linejoin: round; transform-origin: 260.28px 259.335px;" id="el4pxxyzrib1f" class="animable"></line><line x1="263.22" y1="250.21" x2="246.3" y2="249.24" style="fill: none; stroke: rgb(38, 50, 56); stroke-linecap: round; stroke-linejoin: round; transform-origin: 254.76px 249.725px;" id="el1s3cpa4xhqd" class="animable"></line><path d="M260.24,268.25A8.62,8.62,0,0,0,265.5,266" style="fill: none; stroke: rgb(38, 50, 56); stroke-linecap: round; stroke-linejoin: round; transform-origin: 262.87px 267.125px;" id="elx2mg8k0eal" class="animable"></path><path d="M196.69,401s4.15-4.25,1.81-11.91S185,374.32,171,370.42s-32.65.72-35.59,3.42-.31,8.93-.31,8.93a11.38,11.38,0,0,0-6,8.68c-.65,6.16-1.4,7.66-1.93,11s.74,6,6.15,4.4,8.78-8.56,25.23-.28,25,21.25,30.24,17.81S199.65,413.69,196.69,401Z" style="fill: #90CAF9; stroke: rgb(38, 50, 56); stroke-linecap: round; stroke-linejoin: round; transform-origin: 163.137px 396.933px;" id="ely893mnn1g" class="animable"></path><path d="M177.06,487.59s1.54-16.6,1.09-20.29.73-16.93.56-18.31,2-2.58,5.37-5.8-.32-10.25-.88-14.86-1.54-8.7-8.32-14.42-18.62-14.56-29.1-12.34-12.46,5.27-12.46,5.27S114,420.9,113.58,425.16s2.28,10.94,2.28,10.94L90.74,464" style="fill: #90CAF9; stroke: rgb(38, 50, 56); stroke-linecap: round; stroke-linejoin: round; transform-origin: 138.111px 444.405px;" id="el7kppo41qoei" class="animable"></path><path d="M130.17,420.19c-.82.71-1.62,1.46-2.39,2.25" style="fill: none; stroke: rgb(38, 50, 56); stroke-linecap: round; stroke-linejoin: round; transform-origin: 128.975px 421.315px;" id="elrgprmzm3tor" class="animable"></path><path d="M149.13,410.45A49.7,49.7,0,0,0,132.91,418" style="fill: none; stroke: rgb(38, 50, 56); stroke-linecap: round; stroke-linejoin: round; transform-origin: 141.02px 414.225px;" id="el4zr3ikvg596" class="animable"></path><path d="M159.48,411.85s7.64,3,8.6,15.45" style="fill: none; stroke: rgb(38, 50, 56); stroke-linecap: round; stroke-linejoin: round; transform-origin: 163.78px 419.575px;" id="eld0d15y11t0l" class="animable"></path><path d="M163.09,433.11c-.07,1.1-.16,2.26-.3,3.51" style="fill: none; stroke: rgb(38, 50, 56); stroke-linecap: round; stroke-linejoin: round; transform-origin: 162.94px 434.865px;" id="elh7xt6qays3" class="animable"></path><path d="M160.47,417.6s2.84,2.23,2.74,12.39" style="fill: none; stroke: rgb(38, 50, 56); stroke-linecap: round; stroke-linejoin: round; transform-origin: 161.841px 423.795px;" id="el8khs5kkv4tm" class="animable"></path><path d="M166.92,369.83l-17.79,40.62a4.91,4.91,0,0,0,2.32,6.37h0a4.92,4.92,0,0,0,6.59-2.26l20.17-41.64S170.47,369.11,166.92,369.83Z" style="fill: #90CAF9; stroke: rgb(38, 50, 56); stroke-linecap: round; stroke-linejoin: round; transform-origin: 163.464px 393.531px;" id="elm5tpz45t1ua" class="animable"></path><path d="M155,412a2.08,2.08,0,1,1-2.32-1.82A2.08,2.08,0,0,1,155,412Z" style="fill: rgb(255, 255, 255); stroke: rgb(38, 50, 56); stroke-linecap: round; stroke-linejoin: round; transform-origin: 152.934px 412.244px;" id="elc0cayg79in4" class="animable"></path></g><g id="freepik--Confetti--inject-20" class="animable" style="transform-origin: 242.35px 241.175px;"><path d="M36.41,47.92c-2.64-.78-6.54-1.09-7.94,1.82-.91,1.88-.62,5.4-.39,7.43.38,3.31,10.83,17.32,13.09,12.69.8-1.64,0-5.67-.8-7.24-1.64-3.24-5.9-6.5-9.73-6-6.26.87-5.25,12.68-3.16,16.82,2.41,4.81,7.06,8.35,11.07,11.76,3,2.55,7.85,5.74,8.5,10l0-1.24v.53l0-3.76c-.66,4.22-5.48,5-8.66,6.36-2.72,1.2-2.29,3.3-2.24,6,.09,5.09,2.8,9.44,4.66,14.09,1,2.41,1.33,5.63,2.54,7.83,0,.28.09.56.14.83.17-2.4.12-3-.15-1.66-.34.25-.74,1.46-1.08,1.86-.84,1,.81,4,0,5,2-2.33,1.55-6.47,1.31-9.33-.65-7.8-6.43-14.18-7.4-21.79,0,1.64,0,3.28,0,4.91.07-2.54,2.33-2.66,4.28-3.33,2.29-.79,5.12-2.12,6.2-4.44,1-2.09.81-6.05,0-8.2-1.67-4.53-7.48-8-10.95-11-4.17-3.65-9.07-8-9.53-13.88l0,4.27C26.32,57.3,40,62.14,41.16,70c0-1.64,0-3.27,0-4.91-.2,2.84-6-2.15-6.68-2.75-2.85-2.62-5.9-6.08-6.39-10.07l0,4.66c.09-4.71,4.72-5,8.31-4-.41-.13.49-4.86,0-5Z" style="fill: #90CAF9; transform-origin: 36.6028px 89.2125px;" id="ellcwp0byvo6o" class="animable"></path><path d="M404.49,367.45c-4.24-5.23-11.26-6.52-13.14,1.48-1.07,4.54-.67,10.27.06,14.82.27,1.68,3.18,14.71,6,9.52,2-3.63.67-12-.91-15.43-1.43-3.07-4.27-6.46-8.05-6-4,.48-7,4.87-8,8.44-1.34,4.45-1,10.16-.37,14.72,1,7.63,3.45,15.2,5.29,22.66.35,1.44-.45,2.37.24.38-.15.43-.08,1.12-.39,1.49-.71.87-.91,1.68-2,2.33-2.57,1.56-6.36,1.17-9.13.46-2.08-.53-4.81-2.22-6.88-.88-3.13,2-3.39,9.5-4,12.54-1.16,5.95-2.22,19-9.65,20.87-.44.11.37,4.91,0,5,5-1.29,6.51-7.58,7.66-11.92,1.24-4.67,2-9.44,3-14.16.48-2.22,1-6.42,3.39-7.58,1.44-.7,3.11.09,4.5.52a18.12,18.12,0,0,0,7.89,1.05c4.82-.64,5.69-3.62,5.72-7.93A50.84,50.84,0,0,0,383.83,406c-.84-3.18-1.76-6.35-2.52-9.55-.42-1.78-.8-3.57-1.08-5.38-.1-.7-.2-1.4-.27-2.1-.54-4.89-.46.61.09-1.9,1.26-5.81,7.21-13.81,13.46-8.45a13.43,13.43,0,0,1,4.35,8.52c-.06-1.4-.27,1.69-.89,2.1s-.69.55-1.44.3c-1.87-.63-2.88-5.34-3.28-6.86a37.89,37.89,0,0,1-1-4.94,18.79,18.79,0,0,1-.28-3c-.1,2.43.22-.33.37-.81,1.09-3.38,3.09-6.87,7.22-5.86,2.33.58,4.45,2.56,5.92,4.38-.8-1,.83-4,0-5Z" style="fill: #90CAF9; transform-origin: 379.074px 411.539px;" id="elzmq1n5o4ls" class="animable"></path><path d="M451,33.37c-6.54,5.34-11.6,11.65-11.3,20.33.18,5,3.21,7.88,8,9,2.62.63,8.33,1.4,9.41-1.85,2.77-8.3-8.9-9.28-14.28-8-8.55,2-11.67,13.6-8.18,21.12,2.6,5.61,9.45,8.12,14.19,11.52,2.87,2.06,9.15,6.42,9.8,10.24,0-.83,0-1.66,0-2.5v.45c0-.83,0-1.66,0-2.5-1,5.58-11.36,9-15.48,11.34-4.31,2.49-11.47,6.25-12.25,11.81-.35,2.52-.54,6,1.75,7.57,4.17,2.84,14.51,0,16.5,5.82l0-1.84v.58c0-1.06,0-2.11,0-3.17-1,2.94-5.05,3.83-7.45,5.12-2.61,1.4-6.44,3.43-7.18,6.6-.56,2.41-.48,6.19,1.37,7.9-.81-.75.85-4.22,0-5a3.89,3.89,0,0,1-1.4-2.12c0,1.63,0,3.27,0,4.91.22-6.36,10-7.15,13.48-10.64,1.56-1.55,1.59-4.51,1.19-6.61-1.52-7.76-17.86-1.69-18.25-9.25,0,1.64,0,3.27,0,4.91.37-3.17,3.42-5.56,5.77-7.36,4.85-3.73,10.47-6.16,15.64-9.35,4.74-2.93,7.17-5.46,6.33-11.13-.63-4.24-6.56-8.44-9.82-10.78-5.8-4.16-14.36-7.18-15.13-15.32l0,3.17V67.31c0,.61,0,1.22,0,1.83.65-6.78,5-11.17,11.81-11.64,2.2-.15,11.32.15,11.56,3.65,0-1.63,0-3.27,0-4.91-.81,2.73-6.47,2.06-8.44,1.71-4.35-.79-8.71-3.31-8.94-8.18,0,1.64,0,3.28,0,4.91.52-6.57,6.42-12.34,11.28-16.31.83-.69-.8-4.35,0-5Z" style="fill: #90CAF9; transform-origin: 444.762px 88.14px;" id="el1xwmnxmuybb" class="animable"></path><path d="M422.8,191.33c-3.88,2.48-8.7,5.83-10.69,10.12-1.09,2.35-1.54,7.61.16,9.76,2.81,3.55,10.63,4,14.62,5.31,5.93,1.94,13.12,5.52,13.31,12.71v-4.91c-.47,5.31-6.67,6.83-11,7.81-3.5.78-11.25.64-13.83,3.55-1.4,1.58-1.29,6.34-.17,8.08,2.14,3.31,13,3.7,13.11,7.8v-4.91c-.86,2.76-5.32,3.57-7.52,4.88-2.69,1.6-3,3-3,5.88,0,3.07.28,4.9,3,7s8.35,3,9.32,6.73v-4.66c-.05,3.78-3.51,8.42-5.75,11.37-.82,1.08.79,4,0,5,3.52-4.63,6.54-10,5.78-16-.8-6.22-11-5.11-12.28-11.6,0,1.64,0,3.27,0,4.91.27-4.15,6.56-4.56,9.1-6.72,1.79-1.51,1.73-3.78,1.43-6.05-.84-6.2-13.12-3.85-13.7-10.2v5c.76-4.42,12.51-4.52,15.86-5.36,6.15-1.54,9.74-3.82,9.72-10.33,0-7.55-4.55-11.74-11.42-14.3-4.19-1.57-16.7-2.43-17.38-8.16v4.91c.37-5.45,7.18-9.94,11.37-12.61.78-.49-.73-4.53,0-5Z" style="fill: #90CAF9; transform-origin: 425.705px 237.09px;" id="elwqnvwkxyjmn" class="animable"></path><path d="M75.8,299.33c-3.89,2.48-8.7,5.83-10.69,10.12-1.09,2.35-1.54,7.61.16,9.76,2.81,3.55,10.63,4,14.62,5.31C85.82,326.46,93,330,93.2,337.23v-4.91c-.47,5.31-6.67,6.83-11,7.81-3.5.78-11.25.64-13.83,3.55-1.4,1.58-1.29,6.34-.17,8.08,2.14,3.31,13,3.7,13.11,7.8v-4.91c-.86,2.76-5.32,3.57-7.52,4.88-2.69,1.6-3,3-3,5.88,0,3.07.28,4.9,3,7s8.35,3,9.32,6.73v-4.66c0,3.78-3.51,8.42-5.75,11.37-.82,1.08.79,4,0,5,3.52-4.63,6.54-10,5.78-16-.8-6.22-11-5.11-12.28-11.6,0,1.64,0,3.27,0,4.91.27-4.15,6.56-4.56,9.1-6.72,1.79-1.51,1.73-3.78,1.43-6.05-.84-6.2-13.12-3.85-13.7-10.2v5c.76-4.42,12.51-4.52,15.86-5.36,6.15-1.54,9.74-3.82,9.72-10.33,0-7.55-4.55-11.74-11.42-14.3-4.19-1.57-16.7-2.43-17.38-8.16v4.91c.37-5.45,7.18-9.94,11.37-12.61.78-.49-.73-4.53,0-5Z" style="fill: #90CAF9; transform-origin: 78.7055px 345.09px;" id="elw29h0q09e2c" class="animable"></path><path d="M319.44,290.44c3.24-3,10.06-7.2,11.27-.26l0-1.24v.9l0-3.76c-.45,3-2.4,5.26-4.78,7-.73.54-3.77,2.92-4.76,2.09v4.91c.16-3,7.64-5.95,9.75-3.62,3.63,4-6.26,12.52-8.4,15.38-3.35,4.46-5.33,8.94-5.31,14.47,0,3.66.49,7.41,5.23,5.67.57-.21-.51-4.82,0-5-3.08,1.13-5.12,0-5.2-3.41,0,1.63,0,3.27,0,4.91.78-7.74,6.77-13,11.26-18.77,3-3.89,3.6-7.69,3.53-12.4,0-3.46-.45-8-5.14-6.54-2.92.88-5.58,2.91-5.74,5.94-.16,3.27-.19,4.31,3,2.53,3.46-1.91,6.24-4.91,6.56-8.92.21-2.54.63-7.62-2.21-8.86-3-1.32-7,2.09-9.08,3.95-.85.77.81,4.26,0,5Z" style="fill: #90CAF9; transform-origin: 324.623px 306.791px;" id="eljae346ivqzp" class="animable"></path><path d="M100.14,155.32c-3.35.45-7.09,1.7-9.56,4.09-2.79,2.7-2.64,6.42-2.47,10,.22,4.87,3.92,6.2,8.24,7.14,3.05.67,9.89.71,10.38,4.81v-4.91c-.34,5.22-7.85,7.34-11.83,8.86-3.12,1.19-9.23,2.36-10.14,6.09-1,4.22.57,7,4.43,8.72,3.4,1.49,7.22,1.68,10.88,1.73.85,0,5.6-.56,5.74.81v-5c-.81,1.92-3.79,3.35-5.4,4.49-3,2.12-6.14,4.13-9.05,6.4s-3.68,3.43-3.36,7c.08.86-.18,1.49.42,2.14s3.81,1.07,4.77,1.4c1.86.65,9.5,2.92,9.53,5.57V220.4c-.41,1.18-1.5,1.6-2.58,2-.63.27.56,4.77,0,5,3-1.27,3.84-5.9,2-8.65-1.48-2.15-5.27-3.34-7.57-4.22-1.18-.44-6.18-1.2-6.5-2.5v5c.65-2.22,3.8-3.89,5.54-5.14,3.22-2.32,6.65-4.42,9.78-6.86,2-1.56,3.77-4.23,2.47-7.06-1-2.27-6.75-1.1-9-1.26-3.34-.24-11.5-1.18-12-5.56v5c.49-3.75,9.07-5.42,11.86-6.53,4.32-1.72,9.65-3.62,10.13-8.83.41-4.51-.18-6.93-4.87-8.15-4.95-1.29-13.55-1.09-13.75-8v4.92c.59-5.92,6.74-8.62,12-9.33.26,0-.18-5,0-5Z" style="fill: #90CAF9; transform-origin: 95.7117px 191.315px;" id="elc084fuuz3s6" class="animable"></path><path d="M238.61,388.12c-3.35.45-7.1,1.71-9.56,4.09-2.79,2.71-2.64,6.42-2.47,10,.22,4.88,3.92,6.21,8.24,7.15,3.05.66,9.88.71,10.38,4.8,0-1.64,0-3.27,0-4.91-.34,5.22-7.85,7.34-11.83,8.86-3.12,1.2-9.24,2.36-10.14,6.09-1,4.23.56,7,4.42,8.72,3.4,1.49,7.23,1.69,10.89,1.74.85,0,5.6-.57,5.74.8v-5c-.81,1.92-3.79,3.36-5.41,4.5-3,2.12-6.14,4.12-9.05,6.39s-3.67,3.43-3.35,7c.08.87-.18,1.5.41,2.14s3.81,1.07,4.78,1.41c1.86.65,9.5,2.91,9.52,5.57l0-4.27c-.41,1.18-1.5,1.61-2.58,2.06-.63.26.56,4.76,0,5,3-1.27,3.84-5.9,1.94-8.65-1.48-2.16-5.26-3.35-7.56-4.22-1.18-.45-6.19-1.2-6.51-2.5v5c.66-2.23,3.81-3.89,5.55-5.15,3.22-2.32,6.64-4.41,9.77-6.86,2-1.55,3.78-4.23,2.48-7.06-1-2.27-6.75-1.09-9.05-1.26-3.35-.24-11.51-1.18-12-5.55v5c.49-3.76,9.07-5.43,11.86-6.54,4.32-1.72,9.65-3.62,10.12-8.82.42-4.51-.17-6.94-4.86-8.16-5-1.29-13.56-1.08-13.76-7.95v4.91c.59-5.91,6.74-8.62,12-9.33.25,0-.19-5,0-5Z" style="fill: #90CAF9; transform-origin: 234.123px 424.19px;" id="elljxpgmv2efi" class="animable"></path><path d="M226.61,22.12c-3.35.45-7.1,1.71-9.56,4.09-2.79,2.71-2.64,6.42-2.47,10,.22,4.88,3.92,6.21,8.24,7.15,3.05.66,9.88.71,10.38,4.8V43.27c-.34,5.22-7.85,7.34-11.83,8.86-3.12,1.2-9.24,2.36-10.14,6.09-1,4.23.56,7,4.42,8.72,3.4,1.49,7.23,1.69,10.89,1.74.85,0,5.6-.57,5.74.8v-5c-.81,1.92-3.79,3.36-5.41,4.5-3,2.12-6.14,4.12-9.05,6.39s-3.67,3.43-3.35,7c.08.87-.18,1.5.41,2.14s3.81,1.07,4.78,1.41c1.86.65,9.5,2.91,9.52,5.57l0-4.27c-.41,1.18-1.5,1.61-2.58,2.06-.63.26.56,4.76,0,5,3-1.27,3.84-5.9,1.94-8.65-1.48-2.16-5.26-3.35-7.56-4.22-1.18-.45-6.19-1.2-6.51-2.5v5c.66-2.23,3.81-3.89,5.55-5.15,3.22-2.32,6.64-4.41,9.77-6.86,2-1.55,3.78-4.23,2.48-7.06-1-2.27-6.75-1.09-9.05-1.26-3.35-.24-11.51-1.18-12-5.55v5c.49-3.76,9.07-5.43,11.86-6.54,4.32-1.72,9.65-3.62,10.12-8.82.42-4.51-.17-6.94-4.86-8.16-5-1.29-13.56-1.08-13.76-8v4.91c.59-5.91,6.74-8.62,12-9.33.25,0-.19-5,0-5Z" style="fill: #90CAF9; transform-origin: 222.123px 58.185px;" id="elw8vzxpr0k3r" class="animable"></path></g><defs>     <filter id="active" height="200%">         <feMorphology in="SourceAlpha" result="DILATED" operator="dilate" radius="2"></feMorphology>                <feFlood flood-color="#32DFEC" flood-opacity="1" result="PINK"></feFlood>        <feComposite in="PINK" in2="DILATED" operator="in" result="OUTLINE"></feComposite>        <feMerge>            <feMergeNode in="OUTLINE"></feMergeNode>            <feMergeNode in="SourceGraphic"></feMergeNode>        </feMerge>    </filter>    <filter id="hover" height="200%">        <feMorphology in="SourceAlpha" result="DILATED" operator="dilate" radius="2"></feMorphology>                <feFlood flood-color="#ff0000" flood-opacity="0.5" result="PINK"></feFlood>        <feComposite in="PINK" in2="DILATED" operator="in" result="OUTLINE"></feComposite>        <feMerge>            <feMergeNode in="OUTLINE"></feMergeNode>            <feMergeNode in="SourceGraphic"></feMergeNode>        </feMerge>            <feColorMatrix type="matrix" values="0   0   0   0   0                0   1   0   0   0                0   0   0   0   0                0   0   0   1   0 "></feColorMatrix>    </filter></defs></svg>